HIERARCHY
ROOT Root
{
  OFFSET 0.0 0.0 0.0
  CHANNELS 6 Xposition Yposition Zposition Zrotation Yrotation Xrotation
  JOINT Hips
  {
    OFFSET 0.0 100.0 0.0
    CHANNELS 6 Xposition Yposition Zposition Zrotation Yrotation Xrotation
    JOINT Spine1
    {
      OFFSET 5.003913 -0.037094 -0.013727
      CHANNELS 3 Zrotation Yrotation Xrotation
      JOINT Spine2
      {
        OFFSET 7.125363 -1e-06 0.0
        CHANNELS 3 Zrotation Yrotation Xrotation
        JOINT Chest
        {
          OFFSET 7.594027 1e-06 0.0
          CHANNELS 3 Zrotation Yrotation Xrotation
          JOINT Neck1
          {
            OFFSET 26.313086 -0.460272 -0.181672
            CHANNELS 3 Zrotation Yrotation Xrotation
            JOINT Neck2
            {
              OFFSET 8.045911 0.0 0.0
              CHANNELS 3 Zrotation Yrotation Xrotation
              JOINT Head
              {
                OFFSET 6.432774 0.0 0.0
                CHANNELS 3 Zrotation Yrotation Xrotation
                JOINT HeadEnd
                {
                  OFFSET 16.169773 0.06451 0.00362
                  CHANNELS 3 Zrotation Yrotation Xrotation
                }
                JOINT Jaw
                {
                  OFFSET 0.108741 3.12938 0.002639
                  CHANNELS 3 Zrotation Yrotation Xrotation
                }
                JOINT LeftEye
                {
                  OFFSET 4.45173 8.166359 3.206392
                  CHANNELS 3 Zrotation Yrotation Xrotation
                }
                JOINT RightEye
                {
                  OFFSET 4.436895 8.135758 -3.222429
                  CHANNELS 3 Zrotation Yrotation Xrotation
                }
              }
            }
          }
          JOINT LeftShoulder
          {
            OFFSET 23.218927 5.195579 1.621656
            CHANNELS 3 Zrotation Yrotation Xrotation
            JOINT LeftArm
            {
              OFFSET 15.902118 2e-06 -2e-06
              CHANNELS 3 Zrotation Yrotation Xrotation
              JOINT LeftForeArm
              {
                OFFSET 28.739307 0.0 -1e-06
                CHANNELS 3 Zrotation Yrotation Xrotation
                JOINT LeftHand
                {
                  OFFSET 27.093981 -4e-06 0.0
                  CHANNELS 3 Zrotation Yrotation Xrotation
                  JOINT LeftHandThumb1
                  {
                    OFFSET 2.276781 3.380274 0.83384
                    CHANNELS 3 Zrotation Yrotation Xrotation
                    JOINT LeftHandThumb2
                    {
                      OFFSET 4.705309 -1e-06 -1e-06
                      CHANNELS 3 Zrotation Yrotation Xrotation
                      JOINT LeftHandThumb3
                      {
                        OFFSET 2.798515 0.0 3e-06
                        CHANNELS 3 Zrotation Yrotation Xrotation
                        JOINT LeftHandThumbEnd
                        {
                          OFFSET 3.180793 4e-06 -4e-06
                          CHANNELS 3 Zrotation Yrotation Xrotation
                        }
                      }
                    }
                  }
                  JOINT LeftHandIndex1
                  {
                    OFFSET 3.247786 2.352677 0.137192
                    CHANNELS 3 Zrotation Yrotation Xrotation
                    JOINT LeftHandIndex2
                    {
                      OFFSET 6.367095 1e-06 0.0
                      CHANNELS 3 Zrotation Yrotation Xrotation
                      JOINT LeftHandIndex3
                      {
                        OFFSET 3.662364 0.0 0.0
                        CHANNELS 3 Zrotation Yrotation Xrotation
                        JOINT LeftHandIndex4
                        {
                          OFFSET 2.329242 4e-06 -4e-06
                          CHANNELS 3 Zrotation Yrotation Xrotation
                          JOINT LeftHandIndexEnd
                          {
                            OFFSET 2.767823 1e-06 0.0
                            CHANNELS 3 Zrotation Yrotation Xrotation
                          }
                        }
                      }
                    }
                  }
                  JOINT LeftHandMiddle1
                  {
                    OFFSET 3.163612 0.945023 -0.406112
                    CHANNELS 3 Zrotation Yrotation Xrotation
                    JOINT LeftHandMiddle2
                    {
                      OFFSET 6.276789 3e-06 0.0
                      CHANNELS 3 Zrotation Yrotation Xrotation
                      JOINT LeftHandMiddle3
                      {
                        OFFSET 4.35652 -1e-06 4e-06
                        CHANNELS 3 Zrotation Yrotation Xrotation
                        JOINT LeftHandMiddle4
                        {
                          OFFSET 2.996877 0.0 8e-06
                          CHANNELS 3 Zrotation Yrotation Xrotation
                          JOINT LeftHandMiddleEnd
                          {
                            OFFSET 2.323256 3e-06 -4e-06
                            CHANNELS 3 Zrotation Yrotation Xrotation
                          }
                        }
                      }
                    }
                  }
                  JOINT LeftHandRing1
                  {
                    OFFSET 2.882606 -0.309162 0.107445
                    CHANNELS 3 Zrotation Yrotation Xrotation
                    JOINT LeftHandRing2
                    {
                      OFFSET 6.033198 0.0 4e-06
                      CHANNELS 3 Zrotation Yrotation Xrotation
                      JOINT LeftHandRing3
                      {
                        OFFSET 4.350578 3e-06 0.0
                        CHANNELS 3 Zrotation Yrotation Xrotation
                        JOINT LeftHandRing4
                        {
                          OFFSET 2.651321 2e-06 -7e-06
                          CHANNELS 3 Zrotation Yrotation Xrotation
                          JOINT LeftHandRingEnd
                          {
                            OFFSET 1.937663 1e-06 -4e-06
                            CHANNELS 3 Zrotation Yrotation Xrotation
                          }
                        }
                      }
                    }
                  }
                  JOINT LeftHandPinky1
                  {
                    OFFSET 2.865315 -1.525436 0.575687
                    CHANNELS 3 Zrotation Yrotation Xrotation
                    JOINT LeftHandPinky2
                    {
                      OFFSET 5.54936 1e-06 -8e-06
                      CHANNELS 3 Zrotation Yrotation Xrotation
                      JOINT LeftHandPinky3
                      {
                        OFFSET 3.070974 0.0 -4e-06
                        CHANNELS 3 Zrotation Yrotation Xrotation
                        JOINT LeftHandPinky4
                        {
                          OFFSET 1.549672 1e-06 0.0
                          CHANNELS 3 Zrotation Yrotation Xrotation
                          JOINT LeftHandPinkyEnd
                          {
                            OFFSET 1.952123 0.0 0.0
                            CHANNELS 3 Zrotation Yrotation Xrotation
                          }
                        }
                      }
                    }
                  }
                }
              }
            }
          }
          JOINT RightShoulder
          {
            OFFSET 23.161716 5.296122 -1.380114
            CHANNELS 3 Zrotation Yrotation Xrotation
            JOINT RightArm
            {
              OFFSET -16.027195 -2e-06 1.1e-05
              CHANNELS 3 Zrotation Yrotation Xrotation
              JOINT RightForeArm
              {
                OFFSET -28.736639 4e-06 2e-06
                CHANNELS 3 Zrotation Yrotation Xrotation
                JOINT RightHand
                {
                  OFFSET -27.133619 6e-06 0.0
                  CHANNELS 3 Zrotation Yrotation Xrotation
                  JOINT RightHandThumb1
                  {
                    OFFSET -2.274328 -3.351035 -0.83067
                    CHANNELS 3 Zrotation Yrotation Xrotation
                    JOINT RightHandThumb2
                    {
                      OFFSET -4.703594 -3e-06 2e-06
                      CHANNELS 3 Zrotation Yrotation Xrotation
                      JOINT RightHandThumb3
                      {
                        OFFSET -2.794935 -4e-06 -3e-06
                        CHANNELS 3 Zrotation Yrotation Xrotation
                        JOINT RightHandThumbEnd
                        {
                          OFFSET -3.183852 4e-06 1e-06
                          CHANNELS 3 Zrotation Yrotation Xrotation
                        }
                      }
                    }
                  }
                  JOINT RightHandIndex1
                  {
                    OFFSET -3.253496 -2.33755 -0.127667
                    CHANNELS 3 Zrotation Yrotation Xrotation
                    JOINT RightHandIndex2
                    {
                      OFFSET -6.344434 0.0 0.0
                      CHANNELS 3 Zrotation Yrotation Xrotation
                      JOINT RightHandIndex3
                      {
                        OFFSET -3.654871 0.0 -8e-06
                        CHANNELS 3 Zrotation Yrotation Xrotation
                        JOINT RightHandIndex4
                        {
                          OFFSET -2.327586 -1e-06 0.0
                          CHANNELS 3 Zrotation Yrotation Xrotation
                          JOINT RightHandIndexEnd
                          {
                            OFFSET -2.770001 3e-06 8e-06
                            CHANNELS 3 Zrotation Yrotation Xrotation
                          }
                        }
                      }
                    }
                  }
                  JOINT RightHandMiddle1
                  {
                    OFFSET -3.168223 -0.944764 0.411762
                    CHANNELS 3 Zrotation Yrotation Xrotation
                    JOINT RightHandMiddle2
                    {
                      OFFSET -6.266691 -1e-06 -4e-06
                      CHANNELS 3 Zrotation Yrotation Xrotation
                      JOINT RightHandMiddle3
                      {
                        OFFSET -4.348901 0.0 0.0
                        CHANNELS 3 Zrotation Yrotation Xrotation
                        JOINT RightHandMiddle4
                        {
                          OFFSET -3.00024 2e-06 -4e-06
                          CHANNELS 3 Zrotation Yrotation Xrotation
                          JOINT RightHandMiddleEnd
                          {
                            OFFSET -2.321477 -4e-06 -4e-06
                            CHANNELS 3 Zrotation Yrotation Xrotation
                          }
                        }
                      }
                    }
                  }
                  JOINT RightHandRing1
                  {
                    OFFSET -2.885654 0.293261 -0.119232
                    CHANNELS 3 Zrotation Yrotation Xrotation
                    JOINT RightHandRing2
                    {
                      OFFSET -6.032835 -1e-06 -4e-06
                      CHANNELS 3 Zrotation Yrotation Xrotation
                      JOINT RightHandRing3
                      {
                        OFFSET -4.33881 0.0 -4e-06
                        CHANNELS 3 Zrotation Yrotation Xrotation
                        JOINT RightHandRing4
                        {
                          OFFSET -2.654903 -4e-06 -4e-06
                          CHANNELS 3 Zrotation Yrotation Xrotation
                          JOINT RightHandRingEnd
                          {
                            OFFSET -1.935122 0.0 4e-06
                            CHANNELS 3 Zrotation Yrotation Xrotation
                          }
                        }
                      }
                    }
                  }
                  JOINT RightHandPinky1
                  {
                    OFFSET -2.866241 1.503904 -0.60527
                    CHANNELS 3 Zrotation Yrotation Xrotation
                    JOINT RightHandPinky2
                    {
                      OFFSET -5.553177 -2e-06 0.0
                      CHANNELS 3 Zrotation Yrotation Xrotation
                      JOINT RightHandPinky3
                      {
                        OFFSET -3.062664 -1e-06 -4e-06
                        CHANNELS 3 Zrotation Yrotation Xrotation
                        JOINT RightHandPinky4
                        {
                          OFFSET -1.546529 2e-06 4e-06
                          CHANNELS 3 Zrotation Yrotation Xrotation
                          JOINT RightHandPinkyEnd
                          {
                            OFFSET -1.952341 0.0 -4e-06
                            CHANNELS 3 Zrotation Yrotation Xrotation
                          }
                        }
                      }
                    }
                  }
                }
              }
            }
          }
        }
      }
    }
    JOINT LeftLeg
    {
      OFFSET -8.443107 2.567604 10.043214
      CHANNELS 3 Zrotation Yrotation Xrotation
      JOINT LeftShin
      {
        OFFSET 43.229198 1e-06 -1e-06
        CHANNELS 3 Zrotation Yrotation Xrotation
        JOINT LeftFoot
        {
          OFFSET 42.298611 1e-06 1e-06
          CHANNELS 3 Zrotation Yrotation Xrotation
          JOINT LeftToeBase
          {
            OFFSET 14.165858 1e-06 0.0
            CHANNELS 3 Zrotation Yrotation Xrotation
            JOINT LeftToeEnd
            {
              OFFSET 6.7141 -0.234461 0.0
              CHANNELS 3 Zrotation Yrotation Xrotation
            }
          }
        }
      }
    }
    JOINT RightLeg
    {
      OFFSET -8.303923 2.592729 -10.047278
      CHANNELS 3 Zrotation Yrotation Xrotation
      JOINT RightShin
      {
        OFFSET -43.369682 0.0 1e-06
        CHANNELS 3 Zrotation Yrotation Xrotation
        JOINT RightFoot
        {
          OFFSET -42.260784 4e-06 2e-06
          CHANNELS 3 Zrotation Yrotation Xrotation
          JOINT RightToeBase
          {
            OFFSET -14.222245 -2e-06 -1e-06
            CHANNELS 3 Zrotation Yrotation Xrotation
            JOINT RightToeEnd
            {
              OFFSET -6.660062 0.232574 -2e-06
              CHANNELS 3 Zrotation Yrotation Xrotation
            }
          }
        }
      }
    }
  }
}
MOTION
Frames: 4
Frame Time: 0.03333333333333333
0.0 0.0 0.0 0.0 -0.0 0.0 -0.085306 99.778481 -0.234831 90.307816 3.302917 90.223839 -0.12671 0.855736 0.101393 -11.115876 -0.233666 0.669488 15.974766 -0.884851 -1.204691 19.811806 -0.777274 2.565733 -2.550218 -0.659703 0.443212 -35.192493 -0.276734 0.414868 6e-06 0.0 -0.0 0.05617 0.02047 -0.000489 0.054247 -0.011542 -0.019963 0.061617 0.049469 0.023221 -116.475227 -73.094757 132.783005 46.834747 -57.421326 5.196023 28.693995 0.225821 0.055552 2.468273 6.956078 5.403651 17.636629 -26.322729 52.41119 -19.46666 -14.395597 29.410385 -1e-06 -8.774822 0.0 15.679478 -18.161793 6.126928 -0.609776 -1.795652 -3.889325 -4.807089 -11.046809 -2.937851 5e-06 -20.976015 -1e-06 -5.019968 -25.033554 -4.031882 5e-06 1e-06 2e-06 -10.634536 -5.686969 -3.565589 10.573274 -17.922949 -3.113898 1e-06 -13.821208 -1e-06 -0.501781 -31.181501 -4.027015 -11.392756 -59.185257 6.972573 -13.982714 -7.150198 -2.875042 13.772727 -8.401491 -3.218239 0.347733 -34.211544 0.771653 -0.963027 -17.733366 2.621018 0.0 0.0 2e-06 -17.346416 -20.095215 -4.201784 21.757557 -1.638374 3.866429 1e-06 -6.338822 -0.0 -1.697589 -22.591742 -6.194004 -2e-06 -4e-06 -3e-06 51.788109 -78.912247 145.035553 45.575249 -60.464333 4.338379 28.938648 -0.258761 -0.045869 2.512871 -0.375975 7.439183 22.182112 -20.375898 49.933315 -16.701807 -16.743528 28.476528 -2e-06 -12.690598 0.0 16.299849 -17.880806 2.535434 -0.10592 -1.513856 -4.275882 -5.03904 -5.612868 -2.953553 4e-06 -11.02052 -0.0 -6.111296 -15.895329 -3.840468 -0.0 -1e-06 1e-06 -10.283367 -5.680287 -4.341837 11.02829 -11.302402 -2.372633 -1.384269 -14.238578 -6.320116 -0.625444 -26.924179 -3.827599 -4.368985 -50.075108 -3.857601 -13.708521 -7.363475 -3.720938 18.141144 -14.052735 -3.242672 3e-06 -18.787264 2e-06 -0.429711 -8.456041 2.555503 -1e-06 -2e-06 -1e-06 -15.923532 -20.094479 -5.473581 30.419205 -7.190822 1.735925 3e-06 -8.162926 -2e-06 -1.861905 -22.861465 -6.167937 -1e-06 -5e-06 -1e-06 -177.219986 -1.843537 -9.284089 13.167035 -0.000459 -0.043789 -81.442047 -0.73871 -1.905786 -4.877 1.498163 2.141189 -0.999999 0.0 -0.0 -0.174375 -4.401482 3.776368 14.545241 -0.0891 0.100162 -80.381386 0.216272 -4.224965 -4.798409 0.783487 1.737413 -1.000001 -0.0 -0.0 
0.0 0.0 0.0 0.0 -0.0 0.0 -0.068889 99.811478 -0.197947 90.290276 3.325141 90.09787 -0.160929 0.909056 0.083524 -11.106963 -0.214897 0.707818 16.023371 -0.931336 -1.269609 19.639477 -0.781755 2.542573 -2.55011 -0.630674 0.498424 -35.433968 -0.293377 0.536212 6e-06 0.0 -0.0 0.053284 0.022015 0.013501 0.081642 -0.011867 -0.002866 0.093428 0.052937 0.034981 -117.115654 -72.930084 133.58017 46.18874 -57.144581 5.574052 29.575115 0.22056 0.016654 2.58772 6.567754 5.464298 17.636627 -26.322733 52.41119 -19.46666 -14.395597 29.410393 -1e-06 -8.774821 -3e-06 15.713417 -18.158648 6.132851 -0.609776 -1.795654 -3.889329 -4.807088 -11.046809 -2.937849 3e-06 -20.976011 0.0 -5.019972 -25.033556 -4.031878 6e-06 2e-06 1e-06 -10.634533 -5.68697 -3.565588 10.573274 -17.922947 -3.113898 2e-06 -13.821205 -1e-06 -0.501775 -31.181501 -4.027016 -11.451944 -59.20285 7.118567 -13.982712 -7.150196 -2.875041 13.772727 -8.401491 -3.21824 0.347737 -34.211544 0.771652 -0.96303 -17.73337 2.621021 1e-06 0.0 -0.0 -17.346415 -20.095213 -4.201782 21.757555 -1.638376 3.866427 1e-06 -6.338821 1e-06 -1.697591 -22.591738 -6.194003 -2e-06 -3e-06 -0.0 51.159225 -78.720375 145.853119 44.864986 -60.319 3.740652 29.958149 -0.133653 -0.034147 2.59958 -0.765844 6.629035 22.182117 -20.375898 49.933327 -16.701807 -16.743528 28.476532 -2e-06 -12.6906 -1e-06 16.300032 -17.905357 2.571111 -0.105918 -1.513856 -4.275879 -5.039042 -5.612871 -2.953556 4e-06 -11.020523 -1e-06 -6.111297 -15.895332 -3.840472 -0.0 -1e-06 2e-06 -10.283369 -5.680287 -4.341835 11.028294 -11.302404 -2.372636 -1.384269 -14.238577 -6.320122 -0.625438 -26.924191 -3.827601 -4.373283 -50.158119 -3.816463 -13.708519 -7.363472 -3.720942 18.141146 -14.052736 -3.242674 6e-06 -18.787264 -0.0 -0.429711 -8.456043 2.555505 0.0 -0.0 -1e-06 -15.923534 -20.094481 -5.473584 30.419207 -7.190823 1.735928 5e-06 -8.162927 -2e-06 -1.861904 -22.861464 -6.167935 -1e-06 -4e-06 -1e-06 -176.911728 -1.80923 -9.36827 12.666118 0.006052 -0.011242 -81.246986 -0.721213 -1.986629 -4.913825 1.533354 2.149017 -0.999999 -0.0 0.0 0.058708 -4.414014 3.796091 14.117334 -0.083704 0.109215 -80.182373 0.256761 -4.223421 -4.802864 0.77665 1.738516 -1.000002 -0.0 0.0 
0.0 0.0 0.0 0.0 -0.0 0.0 -0.06665 99.83416 -0.171071 90.283348 3.35557 89.978493 -0.203969 0.947163 0.067678 -11.103395 -0.194326 0.715013 16.101946 -0.976315 -1.313519 19.350353 -0.782594 2.516329 -2.585202 -0.601463 0.627546 -35.56665 -0.345532 0.699886 5e-06 -0.0 0.0 0.047299 0.021929 0.012914 0.08303 -0.0184 -0.002037 0.099905 0.059348 0.032993 -117.700317 -72.790413 134.299133 45.155251 -56.702419 5.987761 31.477982 0.256138 -0.004708 2.597206 5.820519 5.161774 17.636623 -26.322731 52.411182 -19.466648 -14.395597 29.410378 0.0 -8.774821 -3e-06 15.725889 -18.177864 6.171886 -0.609778 -1.795653 -3.889326 -4.807088 -11.046807 -2.937849 3e-06 -20.976009 2e-06 -5.019971 -25.033546 -4.031878 5e-06 2e-06 1e-06 -10.634533 -5.686969 -3.565587 10.573271 -17.922943 -3.113896 2e-06 -13.821203 1e-06 -0.501781 -31.181488 -4.027008 -11.565132 -59.203308 7.252003 -13.982711 -7.150194 -2.875041 13.772726 -8.401489 -3.218237 0.347732 -34.211536 0.771655 -0.96303 -17.73337 2.62102 1e-06 0.0 -0.0 -17.346413 -20.095211 -4.201779 21.757553 -1.638373 3.866425 1e-06 -6.338821 1e-06 -1.697592 -22.591738 -6.194003 -3e-06 -4e-06 -2e-06 50.558559 -78.55191 146.626251 43.910088 -60.137516 2.635202 31.876476 0.075288 -0.027358 2.761848 -1.12592 5.210638 22.182106 -20.375891 49.933308 -16.701803 -16.743526 28.476526 -3e-06 -12.690597 -1e-06 16.298174 -17.885792 2.636251 -0.10592 -1.513856 -4.275882 -5.039038 -5.61287 -2.953556 3e-06 -11.02052 -0.0 -6.111295 -15.895328 -3.840472 1e-06 -1e-06 1e-06 -10.283365 -5.680286 -4.341838 11.028289 -11.302402 -2.372633 -1.38427 -14.238577 -6.320117 -0.625438 -26.924183 -3.827598 -4.366806 -50.22295 -3.785813 -13.708519 -7.363473 -3.720938 18.141146 -14.052735 -3.242674 7e-06 -18.787262 -0.0 -0.429711 -8.456043 2.555502 -0.0 2e-06 -2e-06 -15.923526 -20.094475 -5.473588 30.419197 -7.190825 1.735928 3e-06 -8.162924 -2e-06 -1.861903 -22.861464 -6.167938 1e-06 -5e-06 -1e-06 -176.649094 -1.776162 -9.432606 12.26107 0.007035 0.009532 -81.089325 -0.736354 -1.999308 -4.919304 1.558215 2.152515 -0.999998 -0.0 0.0 0.228943 -4.436007 3.756898 13.823422 -0.070924 0.120798 -80.04097 0.289052 -4.259015 -4.764274 0.777997 1.737837 -1.000001 0.0 0.0 
0.0 0.0 0.0 0.0 -0.0 0.0 -0.077442 99.847931 -0.164428 90.281944 3.370465 89.845192 -0.232203 0.955333 0.055998 -11.114235 -0.175938 0.710892 16.164505 -0.995304 -1.326262 18.986378 -0.794736 2.503636 -2.623631 -0.565519 0.864698 -35.750927 -0.377074 0.946595 7e-06 0.0 -0.0 0.039546 0.015519 -0.008834 0.077366 -0.033345 -0.023527 0.094564 0.061976 0.01057 -117.917755 -72.71225 134.583694 43.783142 -56.157196 6.131952 34.885147 0.394115 0.006307 2.735876 4.902251 4.232719 17.636627 -26.322737 52.411194 -19.466661 -14.395596 29.410389 -1e-06 -8.774821 -2e-06 15.684962 -18.166018 6.193604 -0.609776 -1.795655 -3.889326 -4.80709 -11.046809 -2.937849 5e-06 -20.976015 1e-06 -5.019972 -25.033556 -4.03188 7e-06 1e-06 -1e-06 -10.634533 -5.68697 -3.565589 10.57327 -17.922951 -3.113897 3e-06 -13.821206 -2e-06 -0.501781 -31.181501 -4.027012 -11.667035 -59.1623 7.316614 -13.982711 -7.150198 -2.875041 13.772727 -8.40149 -3.218242 0.347734 -34.211544 0.771653 -0.963028 -17.73337 2.62102 1e-06 0.0 1e-06 -17.346418 -20.095221 -4.201779 21.757557 -1.638373 3.866428 0.0 -6.338822 -1e-06 -1.697589 -22.591747 -6.194007 -1e-06 -4e-06 -2e-06 50.274593 -78.378777 147.048477 42.806759 -59.900234 0.907309 35.185177 0.394153 0.000344 3.232136 -1.306053 2.940647 22.182114 -20.375898 49.933319 -16.701815 -16.743528 28.476532 -4e-06 -12.6906 -2e-06 16.23284 -17.849218 2.751702 -0.105921 -1.513858 -4.275879 -5.039039 -5.612871 -2.953559 4e-06 -11.02052 -3e-06 -6.111297 -15.89533 -3.84047 1e-06 -1e-06 1e-06 -10.283371 -5.680288 -4.341839 11.028296 -11.302407 -2.372633 -1.38427 -14.238579 -6.320118 -0.625437 -26.924187 -3.827599 -4.395095 -50.279308 -3.725864 -13.708527 -7.363475 -3.720935 18.14115 -14.052741 -3.242675 9e-06 -18.78727 -1e-06 -0.429712 -8.456045 2.555505 1e-06 -1e-06 -1e-06 -15.923534 -20.094481 -5.473581 30.419207 -7.190827 1.735923 3e-06 -8.162922 -3e-06 -1.8619 -22.861467 -6.167936 -2e-06 -3e-06 -2e-06 -176.476028 -1.751615 -9.493542 11.981517 0.006021 0.029574 -80.97686 -0.822813 -1.994956 -4.950114 1.561885 2.151006 -0.999998 0.0 0.0 0.288854 -4.458611 3.692618 13.685674 -0.053763 0.125256 -79.95961 0.394533 -4.313723 -4.756382 0.783204 1.737131 -1.000003 0.0 -0.0 
